<mxfile host="app.diagrams.net" modified="2024-06-24T17:28:09.703Z" agent="Mozilla/5.0 (Windows NT 10.0; Win64; x64) AppleWebKit/537.36 (KHTML, like Gecko) Chrome/126.0.0.0 Safari/537.36 Edg/126.0.0.0" etag="KcFGTzsO-HJCd-5hLsap" version="24.6.2" type="device">
  <diagram name="Página-1" id="SriTeq6kPC2PApvnVURZ">
    <mxGraphModel dx="1699" dy="1650" grid="1" gridSize="10" guides="1" tooltips="1" connect="1" arrows="1" fold="1" page="1" pageScale="1" pageWidth="827" pageHeight="1169" math="0" shadow="0">
      <root>
        <mxCell id="0" />
        <mxCell id="1" parent="0" />
        <mxCell id="DpAl24xd7RV5yuLRo2oz-66" style="edgeStyle=orthogonalEdgeStyle;rounded=0;orthogonalLoop=1;jettySize=auto;html=1;" edge="1" parent="1" source="DpAl24xd7RV5yuLRo2oz-3" target="DpAl24xd7RV5yuLRo2oz-20">
          <mxGeometry relative="1" as="geometry" />
        </mxCell>
        <mxCell id="DpAl24xd7RV5yuLRo2oz-67" style="edgeStyle=orthogonalEdgeStyle;rounded=0;orthogonalLoop=1;jettySize=auto;html=1;" edge="1" parent="1" source="DpAl24xd7RV5yuLRo2oz-3" target="DpAl24xd7RV5yuLRo2oz-7">
          <mxGeometry relative="1" as="geometry" />
        </mxCell>
        <mxCell id="DpAl24xd7RV5yuLRo2oz-3" value="Login" style="swimlane;fontStyle=0;childLayout=stackLayout;horizontal=1;startSize=30;horizontalStack=0;resizeParent=1;resizeParentMax=0;resizeLast=0;collapsible=1;marginBottom=0;whiteSpace=wrap;html=1;" vertex="1" parent="1">
          <mxGeometry x="-190" y="32.5" width="140" height="90" as="geometry" />
        </mxCell>
        <mxCell id="DpAl24xd7RV5yuLRo2oz-4" value="Usuario" style="text;strokeColor=none;fillColor=none;align=left;verticalAlign=middle;spacingLeft=4;spacingRight=4;overflow=hidden;points=[[0,0.5],[1,0.5]];portConstraint=eastwest;rotatable=0;whiteSpace=wrap;html=1;" vertex="1" parent="DpAl24xd7RV5yuLRo2oz-3">
          <mxGeometry y="30" width="140" height="30" as="geometry" />
        </mxCell>
        <mxCell id="DpAl24xd7RV5yuLRo2oz-6" value="Contraseña" style="text;strokeColor=none;fillColor=none;align=left;verticalAlign=middle;spacingLeft=4;spacingRight=4;overflow=hidden;points=[[0,0.5],[1,0.5]];portConstraint=eastwest;rotatable=0;whiteSpace=wrap;html=1;" vertex="1" parent="DpAl24xd7RV5yuLRo2oz-3">
          <mxGeometry y="60" width="140" height="30" as="geometry" />
        </mxCell>
        <mxCell id="DpAl24xd7RV5yuLRo2oz-71" style="edgeStyle=orthogonalEdgeStyle;rounded=0;orthogonalLoop=1;jettySize=auto;html=1;" edge="1" parent="1" source="DpAl24xd7RV5yuLRo2oz-7" target="DpAl24xd7RV5yuLRo2oz-34">
          <mxGeometry relative="1" as="geometry" />
        </mxCell>
        <mxCell id="DpAl24xd7RV5yuLRo2oz-7" value="Usuario - Amin" style="swimlane;fontStyle=0;childLayout=stackLayout;horizontal=1;startSize=25;horizontalStack=0;resizeParent=1;resizeParentMax=0;resizeLast=0;collapsible=1;marginBottom=0;whiteSpace=wrap;html=1;" vertex="1" parent="1">
          <mxGeometry x="80" y="122.5" width="140" height="325" as="geometry" />
        </mxCell>
        <mxCell id="DpAl24xd7RV5yuLRo2oz-8" value="nombres_adm" style="text;strokeColor=none;fillColor=none;align=left;verticalAlign=middle;spacingLeft=4;spacingRight=4;overflow=hidden;points=[[0,0.5],[1,0.5]];portConstraint=eastwest;rotatable=0;whiteSpace=wrap;html=1;" vertex="1" parent="DpAl24xd7RV5yuLRo2oz-7">
          <mxGeometry y="25" width="140" height="30" as="geometry" />
        </mxCell>
        <mxCell id="DpAl24xd7RV5yuLRo2oz-9" value="apellidos_adm" style="text;strokeColor=none;fillColor=none;align=left;verticalAlign=middle;spacingLeft=4;spacingRight=4;overflow=hidden;points=[[0,0.5],[1,0.5]];portConstraint=eastwest;rotatable=0;whiteSpace=wrap;html=1;" vertex="1" parent="DpAl24xd7RV5yuLRo2oz-7">
          <mxGeometry y="55" width="140" height="30" as="geometry" />
        </mxCell>
        <mxCell id="DpAl24xd7RV5yuLRo2oz-15" value="CI_adm" style="text;strokeColor=none;fillColor=none;align=left;verticalAlign=middle;spacingLeft=4;spacingRight=4;overflow=hidden;points=[[0,0.5],[1,0.5]];portConstraint=eastwest;rotatable=0;whiteSpace=wrap;html=1;" vertex="1" parent="DpAl24xd7RV5yuLRo2oz-7">
          <mxGeometry y="85" width="140" height="30" as="geometry" />
        </mxCell>
        <mxCell id="DpAl24xd7RV5yuLRo2oz-68" value="area_adm" style="text;strokeColor=none;fillColor=none;align=left;verticalAlign=middle;spacingLeft=4;spacingRight=4;overflow=hidden;points=[[0,0.5],[1,0.5]];portConstraint=eastwest;rotatable=0;whiteSpace=wrap;html=1;" vertex="1" parent="DpAl24xd7RV5yuLRo2oz-7">
          <mxGeometry y="115" width="140" height="30" as="geometry" />
        </mxCell>
        <mxCell id="DpAl24xd7RV5yuLRo2oz-69" value="cargo_adm" style="text;strokeColor=none;fillColor=none;align=left;verticalAlign=middle;spacingLeft=4;spacingRight=4;overflow=hidden;points=[[0,0.5],[1,0.5]];portConstraint=eastwest;rotatable=0;whiteSpace=wrap;html=1;" vertex="1" parent="DpAl24xd7RV5yuLRo2oz-7">
          <mxGeometry y="145" width="140" height="30" as="geometry" />
        </mxCell>
        <mxCell id="DpAl24xd7RV5yuLRo2oz-10" value="dirección_adm" style="text;strokeColor=none;fillColor=none;align=left;verticalAlign=middle;spacingLeft=4;spacingRight=4;overflow=hidden;points=[[0,0.5],[1,0.5]];portConstraint=eastwest;rotatable=0;whiteSpace=wrap;html=1;" vertex="1" parent="DpAl24xd7RV5yuLRo2oz-7">
          <mxGeometry y="175" width="140" height="30" as="geometry" />
        </mxCell>
        <mxCell id="DpAl24xd7RV5yuLRo2oz-16" value="correo_adm" style="text;strokeColor=none;fillColor=none;align=left;verticalAlign=middle;spacingLeft=4;spacingRight=4;overflow=hidden;points=[[0,0.5],[1,0.5]];portConstraint=eastwest;rotatable=0;whiteSpace=wrap;html=1;" vertex="1" parent="DpAl24xd7RV5yuLRo2oz-7">
          <mxGeometry y="205" width="140" height="30" as="geometry" />
        </mxCell>
        <mxCell id="DpAl24xd7RV5yuLRo2oz-19" value="telefono_adm" style="text;strokeColor=none;fillColor=none;align=left;verticalAlign=middle;spacingLeft=4;spacingRight=4;overflow=hidden;points=[[0,0.5],[1,0.5]];portConstraint=eastwest;rotatable=0;whiteSpace=wrap;html=1;" vertex="1" parent="DpAl24xd7RV5yuLRo2oz-7">
          <mxGeometry y="235" width="140" height="30" as="geometry" />
        </mxCell>
        <mxCell id="DpAl24xd7RV5yuLRo2oz-17" value="usuario_adm" style="text;strokeColor=none;fillColor=none;align=left;verticalAlign=middle;spacingLeft=4;spacingRight=4;overflow=hidden;points=[[0,0.5],[1,0.5]];portConstraint=eastwest;rotatable=0;whiteSpace=wrap;html=1;" vertex="1" parent="DpAl24xd7RV5yuLRo2oz-7">
          <mxGeometry y="265" width="140" height="30" as="geometry" />
        </mxCell>
        <mxCell id="DpAl24xd7RV5yuLRo2oz-18" value="contraseña_adm" style="text;strokeColor=none;fillColor=none;align=left;verticalAlign=middle;spacingLeft=4;spacingRight=4;overflow=hidden;points=[[0,0.5],[1,0.5]];portConstraint=eastwest;rotatable=0;whiteSpace=wrap;html=1;" vertex="1" parent="DpAl24xd7RV5yuLRo2oz-7">
          <mxGeometry y="295" width="140" height="30" as="geometry" />
        </mxCell>
        <mxCell id="DpAl24xd7RV5yuLRo2oz-45" style="edgeStyle=orthogonalEdgeStyle;rounded=0;orthogonalLoop=1;jettySize=auto;html=1;" edge="1" parent="1" source="DpAl24xd7RV5yuLRo2oz-52" target="DpAl24xd7RV5yuLRo2oz-29">
          <mxGeometry relative="1" as="geometry" />
        </mxCell>
        <mxCell id="DpAl24xd7RV5yuLRo2oz-20" value="Usuario" style="swimlane;fontStyle=0;childLayout=stackLayout;horizontal=1;startSize=25;horizontalStack=0;resizeParent=1;resizeParentMax=0;resizeLast=0;collapsible=1;marginBottom=0;whiteSpace=wrap;html=1;" vertex="1" parent="1">
          <mxGeometry x="80" y="-292.5" width="140" height="325" as="geometry" />
        </mxCell>
        <mxCell id="DpAl24xd7RV5yuLRo2oz-21" value="nombres_us" style="text;strokeColor=none;fillColor=none;align=left;verticalAlign=middle;spacingLeft=4;spacingRight=4;overflow=hidden;points=[[0,0.5],[1,0.5]];portConstraint=eastwest;rotatable=0;whiteSpace=wrap;html=1;" vertex="1" parent="DpAl24xd7RV5yuLRo2oz-20">
          <mxGeometry y="25" width="140" height="30" as="geometry" />
        </mxCell>
        <mxCell id="DpAl24xd7RV5yuLRo2oz-22" value="apellidos_us" style="text;strokeColor=none;fillColor=none;align=left;verticalAlign=middle;spacingLeft=4;spacingRight=4;overflow=hidden;points=[[0,0.5],[1,0.5]];portConstraint=eastwest;rotatable=0;whiteSpace=wrap;html=1;" vertex="1" parent="DpAl24xd7RV5yuLRo2oz-20">
          <mxGeometry y="55" width="140" height="30" as="geometry" />
        </mxCell>
        <mxCell id="DpAl24xd7RV5yuLRo2oz-23" value="CI_us" style="text;strokeColor=none;fillColor=none;align=left;verticalAlign=middle;spacingLeft=4;spacingRight=4;overflow=hidden;points=[[0,0.5],[1,0.5]];portConstraint=eastwest;rotatable=0;whiteSpace=wrap;html=1;" vertex="1" parent="DpAl24xd7RV5yuLRo2oz-20">
          <mxGeometry y="85" width="140" height="30" as="geometry" />
        </mxCell>
        <mxCell id="DpAl24xd7RV5yuLRo2oz-41" value="area_us" style="text;strokeColor=none;fillColor=none;align=left;verticalAlign=middle;spacingLeft=4;spacingRight=4;overflow=hidden;points=[[0,0.5],[1,0.5]];portConstraint=eastwest;rotatable=0;whiteSpace=wrap;html=1;" vertex="1" parent="DpAl24xd7RV5yuLRo2oz-20">
          <mxGeometry y="115" width="140" height="30" as="geometry" />
        </mxCell>
        <mxCell id="DpAl24xd7RV5yuLRo2oz-42" value="cargo_us" style="text;strokeColor=none;fillColor=none;align=left;verticalAlign=middle;spacingLeft=4;spacingRight=4;overflow=hidden;points=[[0,0.5],[1,0.5]];portConstraint=eastwest;rotatable=0;whiteSpace=wrap;html=1;" vertex="1" parent="DpAl24xd7RV5yuLRo2oz-20">
          <mxGeometry y="145" width="140" height="30" as="geometry" />
        </mxCell>
        <mxCell id="DpAl24xd7RV5yuLRo2oz-24" value="dirección_us" style="text;strokeColor=none;fillColor=none;align=left;verticalAlign=middle;spacingLeft=4;spacingRight=4;overflow=hidden;points=[[0,0.5],[1,0.5]];portConstraint=eastwest;rotatable=0;whiteSpace=wrap;html=1;" vertex="1" parent="DpAl24xd7RV5yuLRo2oz-20">
          <mxGeometry y="175" width="140" height="30" as="geometry" />
        </mxCell>
        <mxCell id="DpAl24xd7RV5yuLRo2oz-25" value="correo_us" style="text;strokeColor=none;fillColor=none;align=left;verticalAlign=middle;spacingLeft=4;spacingRight=4;overflow=hidden;points=[[0,0.5],[1,0.5]];portConstraint=eastwest;rotatable=0;whiteSpace=wrap;html=1;" vertex="1" parent="DpAl24xd7RV5yuLRo2oz-20">
          <mxGeometry y="205" width="140" height="30" as="geometry" />
        </mxCell>
        <mxCell id="DpAl24xd7RV5yuLRo2oz-26" value="telefono_us" style="text;strokeColor=none;fillColor=none;align=left;verticalAlign=middle;spacingLeft=4;spacingRight=4;overflow=hidden;points=[[0,0.5],[1,0.5]];portConstraint=eastwest;rotatable=0;whiteSpace=wrap;html=1;" vertex="1" parent="DpAl24xd7RV5yuLRo2oz-20">
          <mxGeometry y="235" width="140" height="30" as="geometry" />
        </mxCell>
        <mxCell id="DpAl24xd7RV5yuLRo2oz-27" value="usuario_us" style="text;strokeColor=none;fillColor=none;align=left;verticalAlign=middle;spacingLeft=4;spacingRight=4;overflow=hidden;points=[[0,0.5],[1,0.5]];portConstraint=eastwest;rotatable=0;whiteSpace=wrap;html=1;" vertex="1" parent="DpAl24xd7RV5yuLRo2oz-20">
          <mxGeometry y="265" width="140" height="30" as="geometry" />
        </mxCell>
        <mxCell id="DpAl24xd7RV5yuLRo2oz-28" value="contraseña_us" style="text;strokeColor=none;fillColor=none;align=left;verticalAlign=middle;spacingLeft=4;spacingRight=4;overflow=hidden;points=[[0,0.5],[1,0.5]];portConstraint=eastwest;rotatable=0;whiteSpace=wrap;html=1;" vertex="1" parent="DpAl24xd7RV5yuLRo2oz-20">
          <mxGeometry y="295" width="140" height="30" as="geometry" />
        </mxCell>
        <mxCell id="DpAl24xd7RV5yuLRo2oz-55" style="edgeStyle=orthogonalEdgeStyle;rounded=0;orthogonalLoop=1;jettySize=auto;html=1;" edge="1" parent="1" source="DpAl24xd7RV5yuLRo2oz-56" target="DpAl24xd7RV5yuLRo2oz-46">
          <mxGeometry relative="1" as="geometry">
            <Array as="points" />
          </mxGeometry>
        </mxCell>
        <mxCell id="DpAl24xd7RV5yuLRo2oz-29" value="Solicitud Servicio" style="swimlane;fontStyle=0;childLayout=stackLayout;horizontal=1;startSize=30;horizontalStack=0;resizeParent=1;resizeParentMax=0;resizeLast=0;collapsible=1;marginBottom=0;whiteSpace=wrap;html=1;" vertex="1" parent="1">
          <mxGeometry x="640" y="-220" width="140" height="180" as="geometry" />
        </mxCell>
        <mxCell id="DpAl24xd7RV5yuLRo2oz-30" value="nom_servicio" style="text;strokeColor=none;fillColor=none;align=left;verticalAlign=middle;spacingLeft=4;spacingRight=4;overflow=hidden;points=[[0,0.5],[1,0.5]];portConstraint=eastwest;rotatable=0;whiteSpace=wrap;html=1;" vertex="1" parent="DpAl24xd7RV5yuLRo2oz-29">
          <mxGeometry y="30" width="140" height="30" as="geometry" />
        </mxCell>
        <mxCell id="DpAl24xd7RV5yuLRo2oz-31" value="nom_suservicio" style="text;strokeColor=none;fillColor=none;align=left;verticalAlign=middle;spacingLeft=4;spacingRight=4;overflow=hidden;points=[[0,0.5],[1,0.5]];portConstraint=eastwest;rotatable=0;whiteSpace=wrap;html=1;" vertex="1" parent="DpAl24xd7RV5yuLRo2oz-29">
          <mxGeometry y="60" width="140" height="30" as="geometry" />
        </mxCell>
        <mxCell id="DpAl24xd7RV5yuLRo2oz-32" value="Solicitante" style="text;strokeColor=none;fillColor=none;align=left;verticalAlign=middle;spacingLeft=4;spacingRight=4;overflow=hidden;points=[[0,0.5],[1,0.5]];portConstraint=eastwest;rotatable=0;whiteSpace=wrap;html=1;" vertex="1" parent="DpAl24xd7RV5yuLRo2oz-29">
          <mxGeometry y="90" width="140" height="30" as="geometry" />
        </mxCell>
        <mxCell id="DpAl24xd7RV5yuLRo2oz-40" value="Area" style="text;strokeColor=none;fillColor=none;align=left;verticalAlign=middle;spacingLeft=4;spacingRight=4;overflow=hidden;points=[[0,0.5],[1,0.5]];portConstraint=eastwest;rotatable=0;whiteSpace=wrap;html=1;" vertex="1" parent="DpAl24xd7RV5yuLRo2oz-29">
          <mxGeometry y="120" width="140" height="30" as="geometry" />
        </mxCell>
        <mxCell id="DpAl24xd7RV5yuLRo2oz-38" value="Destinatario" style="text;strokeColor=none;fillColor=none;align=left;verticalAlign=middle;spacingLeft=4;spacingRight=4;overflow=hidden;points=[[0,0.5],[1,0.5]];portConstraint=eastwest;rotatable=0;whiteSpace=wrap;html=1;" vertex="1" parent="DpAl24xd7RV5yuLRo2oz-29">
          <mxGeometry y="150" width="140" height="30" as="geometry" />
        </mxCell>
        <mxCell id="DpAl24xd7RV5yuLRo2oz-34" value="Ventana de solicitudes (adm)" style="swimlane;fontStyle=0;childLayout=stackLayout;horizontal=1;startSize=30;horizontalStack=0;resizeParent=1;resizeParentMax=0;resizeLast=0;collapsible=1;marginBottom=0;whiteSpace=wrap;html=1;" vertex="1" parent="1">
          <mxGeometry x="630" y="225" width="140" height="120" as="geometry" />
        </mxCell>
        <mxCell id="DpAl24xd7RV5yuLRo2oz-35" value="Item 1" style="text;strokeColor=none;fillColor=none;align=left;verticalAlign=middle;spacingLeft=4;spacingRight=4;overflow=hidden;points=[[0,0.5],[1,0.5]];portConstraint=eastwest;rotatable=0;whiteSpace=wrap;html=1;" vertex="1" parent="DpAl24xd7RV5yuLRo2oz-34">
          <mxGeometry y="30" width="140" height="30" as="geometry" />
        </mxCell>
        <mxCell id="DpAl24xd7RV5yuLRo2oz-36" value="Item 2" style="text;strokeColor=none;fillColor=none;align=left;verticalAlign=middle;spacingLeft=4;spacingRight=4;overflow=hidden;points=[[0,0.5],[1,0.5]];portConstraint=eastwest;rotatable=0;whiteSpace=wrap;html=1;" vertex="1" parent="DpAl24xd7RV5yuLRo2oz-34">
          <mxGeometry y="60" width="140" height="30" as="geometry" />
        </mxCell>
        <mxCell id="DpAl24xd7RV5yuLRo2oz-37" value="+ Buscar(num_ref)" style="text;strokeColor=none;fillColor=none;align=left;verticalAlign=middle;spacingLeft=4;spacingRight=4;overflow=hidden;points=[[0,0.5],[1,0.5]];portConstraint=eastwest;rotatable=0;whiteSpace=wrap;html=1;" vertex="1" parent="DpAl24xd7RV5yuLRo2oz-34">
          <mxGeometry y="90" width="140" height="30" as="geometry" />
        </mxCell>
        <mxCell id="DpAl24xd7RV5yuLRo2oz-63" style="edgeStyle=orthogonalEdgeStyle;rounded=0;orthogonalLoop=1;jettySize=auto;html=1;" edge="1" parent="1" source="DpAl24xd7RV5yuLRo2oz-65" target="DpAl24xd7RV5yuLRo2oz-58">
          <mxGeometry relative="1" as="geometry" />
        </mxCell>
        <mxCell id="DpAl24xd7RV5yuLRo2oz-46" value="Lista de solicitudes pendientes&amp;nbsp;" style="swimlane;fontStyle=0;childLayout=stackLayout;horizontal=1;startSize=30;horizontalStack=0;resizeParent=1;resizeParentMax=0;resizeLast=0;collapsible=1;marginBottom=0;whiteSpace=wrap;html=1;" vertex="1" parent="1">
          <mxGeometry x="360" y="-450" width="140" height="120" as="geometry" />
        </mxCell>
        <mxCell id="DpAl24xd7RV5yuLRo2oz-47" value="Solitudes de servicio" style="text;strokeColor=none;fillColor=none;align=left;verticalAlign=middle;spacingLeft=4;spacingRight=4;overflow=hidden;points=[[0,0.5],[1,0.5]];portConstraint=eastwest;rotatable=0;whiteSpace=wrap;html=1;" vertex="1" parent="DpAl24xd7RV5yuLRo2oz-46">
          <mxGeometry y="30" width="140" height="30" as="geometry" />
        </mxCell>
        <mxCell id="DpAl24xd7RV5yuLRo2oz-48" value="Item 2" style="text;strokeColor=none;fillColor=none;align=left;verticalAlign=middle;spacingLeft=4;spacingRight=4;overflow=hidden;points=[[0,0.5],[1,0.5]];portConstraint=eastwest;rotatable=0;whiteSpace=wrap;html=1;" vertex="1" parent="DpAl24xd7RV5yuLRo2oz-46">
          <mxGeometry y="60" width="140" height="30" as="geometry" />
        </mxCell>
        <mxCell id="DpAl24xd7RV5yuLRo2oz-49" value="+Editar()" style="text;strokeColor=none;fillColor=none;align=left;verticalAlign=middle;spacingLeft=4;spacingRight=4;overflow=hidden;points=[[0,0.5],[1,0.5]];portConstraint=eastwest;rotatable=0;whiteSpace=wrap;html=1;" vertex="1" parent="DpAl24xd7RV5yuLRo2oz-46">
          <mxGeometry y="90" width="140" height="30" as="geometry" />
        </mxCell>
        <mxCell id="DpAl24xd7RV5yuLRo2oz-53" value="" style="edgeStyle=orthogonalEdgeStyle;rounded=0;orthogonalLoop=1;jettySize=auto;html=1;" edge="1" parent="1" source="DpAl24xd7RV5yuLRo2oz-20" target="DpAl24xd7RV5yuLRo2oz-52">
          <mxGeometry relative="1" as="geometry">
            <mxPoint x="220" y="-130" as="sourcePoint" />
            <mxPoint x="640" y="-130" as="targetPoint" />
          </mxGeometry>
        </mxCell>
        <mxCell id="DpAl24xd7RV5yuLRo2oz-52" value="Crea" style="text;html=1;align=center;verticalAlign=middle;whiteSpace=wrap;rounded=0;" vertex="1" parent="1">
          <mxGeometry x="400" y="-145" width="60" height="30" as="geometry" />
        </mxCell>
        <mxCell id="DpAl24xd7RV5yuLRo2oz-57" value="" style="edgeStyle=orthogonalEdgeStyle;rounded=0;orthogonalLoop=1;jettySize=auto;html=1;" edge="1" parent="1" source="DpAl24xd7RV5yuLRo2oz-29" target="DpAl24xd7RV5yuLRo2oz-56">
          <mxGeometry relative="1" as="geometry">
            <mxPoint x="710" y="-220" as="sourcePoint" />
            <mxPoint x="500" y="-390" as="targetPoint" />
            <Array as="points">
              <mxPoint x="710" y="-390" />
            </Array>
          </mxGeometry>
        </mxCell>
        <mxCell id="DpAl24xd7RV5yuLRo2oz-56" value="Se almacena" style="text;html=1;align=center;verticalAlign=middle;whiteSpace=wrap;rounded=0;" vertex="1" parent="1">
          <mxGeometry x="600" y="-405" width="80" height="30" as="geometry" />
        </mxCell>
        <mxCell id="DpAl24xd7RV5yuLRo2oz-58" value="Seguimiento_Usario" style="swimlane;fontStyle=0;childLayout=stackLayout;horizontal=1;startSize=30;horizontalStack=0;resizeParent=1;resizeParentMax=0;resizeLast=0;collapsible=1;marginBottom=0;whiteSpace=wrap;html=1;" vertex="1" parent="1">
          <mxGeometry x="50" y="-495" width="160" height="90" as="geometry" />
        </mxCell>
        <mxCell id="DpAl24xd7RV5yuLRo2oz-59" value="Descripcion_seguimiento" style="text;strokeColor=none;fillColor=none;align=left;verticalAlign=middle;spacingLeft=4;spacingRight=4;overflow=hidden;points=[[0,0.5],[1,0.5]];portConstraint=eastwest;rotatable=0;whiteSpace=wrap;html=1;" vertex="1" parent="DpAl24xd7RV5yuLRo2oz-58">
          <mxGeometry y="30" width="160" height="30" as="geometry" />
        </mxCell>
        <mxCell id="DpAl24xd7RV5yuLRo2oz-60" value="+Subir_archivo" style="text;strokeColor=none;fillColor=none;align=left;verticalAlign=middle;spacingLeft=4;spacingRight=4;overflow=hidden;points=[[0,0.5],[1,0.5]];portConstraint=eastwest;rotatable=0;whiteSpace=wrap;html=1;" vertex="1" parent="DpAl24xd7RV5yuLRo2oz-58">
          <mxGeometry y="60" width="160" height="30" as="geometry" />
        </mxCell>
        <mxCell id="DpAl24xd7RV5yuLRo2oz-64" value="" style="edgeStyle=orthogonalEdgeStyle;rounded=0;orthogonalLoop=1;jettySize=auto;html=1;" edge="1" parent="1" source="DpAl24xd7RV5yuLRo2oz-46" target="DpAl24xd7RV5yuLRo2oz-65">
          <mxGeometry relative="1" as="geometry">
            <mxPoint x="360" y="-390" as="sourcePoint" />
            <mxPoint x="230" y="-495" as="targetPoint" />
          </mxGeometry>
        </mxCell>
        <mxCell id="DpAl24xd7RV5yuLRo2oz-65" value="Puede" style="text;html=1;align=center;verticalAlign=middle;whiteSpace=wrap;rounded=0;" vertex="1" parent="1">
          <mxGeometry x="260" y="-465" width="60" height="30" as="geometry" />
        </mxCell>
      </root>
    </mxGraphModel>
  </diagram>
</mxfile>
